<?xml version="1.0" standalone="no"?><!DOCTYPE svg PUBLIC "-//W3C//DTD SVG 1.1//EN" "http://www.w3.org/Graphics/SVG/1.1/DTD/svg11.dtd"><svg t="1602684520079" class="icon" viewBox="0 0 1024 1024" version="1.1" xmlns="http://www.w3.org/2000/svg" p-id="3266" xmlns:xlink="http://www.w3.org/1999/xlink" width="128" height="128"><defs><style type="text/css"></style></defs><path d="M879.542857 800.914286c71.314286-82.285714 113.371429-190.171429 113.371429-305.371429C992.914286 232.228571 775.314286 16.457143 512 16.457143S31.085714 232.228571 31.085714 493.714286s217.6 477.257143 484.571429 477.257143c107.885714 0 206.628571-34.742857 288.914286-96.914286l96.914285 115.2c16.457143 20.114286 49.371429 21.942857 69.485715 5.485714l7.314285-5.485714c20.114286-16.457143 21.942857-49.371429 5.485715-69.485714l-104.228572-118.857143zM512 914.285714C274.285714 914.285714 85.942857 724.114286 85.942857 493.714286S279.771429 73.142857 512 73.142857s426.057143 186.514286 426.057143 420.571429C938.057143 729.6 749.714286 914.285714 512 914.285714z" p-id="3267"></path><path d="M451.657143 279.771429c43.885714-5.485714 80.457143-5.485714 118.857143 0 27.428571 5.485714 54.857143 10.971429 82.285714 18.285714 20.114286 5.485714 34.742857 20.114286 42.057143 42.057143 10.971429 34.742857 23.771429 67.657143 34.742857 100.571428 1.828571 5.485714 9.142857 14.628571 12.8 12.8 25.6-3.657143 38.4 12.8 45.714286 34.742857 1.828571 7.314286 0 14.628571 0 18.285715l-31.085715 9.142857c1.828571 10.971429 3.657143 23.771429 3.657143 36.571428v164.571429c0 9.142857-5.485714 25.6-9.142857 27.428571-3.657143 5.485714-82.285714 5.485714-89.6 1.828572-20.114286-14.628571-7.314286-36.571429-14.628571-56.685714H378.514286c-5.485714 20.114286-9.142857 53.028571-14.628572 56.685714-14.628571 5.485714-87.771429 5.485714-91.428571 0-5.485714-3.657143-9.142857-20.114286-10.971429-31.085714-1.828571-23.771429 0-45.714286 0-69.485715 0-42.057143 1.828571-85.942857 1.828572-129.828571l-29.257143-7.314286c0-3.657143-1.828571-9.142857 0-14.628571 7.314286-23.771429 18.285714-42.057143 47.542857-38.4 3.657143 0 9.142857-7.314286 10.971429-12.8 9.142857-27.428571 20.114286-53.028571 27.428571-80.457143 10.971429-45.714286 43.885714-65.828571 84.114286-73.142857 16.457143-3.657143 32.914286-5.485714 47.542857-9.142857z m-122.514286 182.857142c124.342857 27.428571 243.2 27.428571 363.885714 0-10.971429-32.914286-20.114286-62.171429-27.428571-91.428571-7.314286-25.6-21.942857-38.4-45.714286-40.228571-58.514286-1.828571-115.2-5.485714-173.714285-5.485715-18.285714 0-38.4 3.657143-56.685715 9.142857-7.314286 1.828571-18.285714 7.314286-20.114285 14.628572-14.628571 36.571429-27.428571 73.142857-40.228572 113.371428z m23.771429 138.971429s0 1.828571 0 0c9.142857 0 20.114286 0 29.257143-1.828571 7.314286-1.828571 14.628571-7.314286 18.285714-12.8 1.828571-3.657143-5.485714-14.628571-10.971429-18.285715-21.942857-10.971429-45.714286-20.114286-69.485714-29.257143-10.971429-3.657143-25.6-3.657143-29.257143 14.628572-5.485714 25.6 0 40.228571 18.285714 43.885714 14.628571 1.828571 29.257143 3.657143 43.885715 3.657143z m321.828571 0c12.8-1.828571 29.257143-1.828571 43.885714-5.485714 20.114286-5.485714 16.457143-23.771429 16.457143-38.4 0-12.8-9.142857-23.771429-20.114285-20.114286-29.257143 9.142857-56.685714 20.114286-84.114286 32.914286-12.8 5.485714-7.314286 23.771429 5.485714 27.428571 10.971429 3.657143 23.771429 3.657143 38.4 3.657143z m0 0" p-id="3268"></path></svg>