<?xml version="1.0" standalone="no"?><!DOCTYPE svg PUBLIC "-//W3C//DTD SVG 1.1//EN" "http://www.w3.org/Graphics/SVG/1.1/DTD/svg11.dtd"><svg t="1603376546533" class="icon" viewBox="0 0 1024 1024" version="1.1" xmlns="http://www.w3.org/2000/svg" p-id="2445" xmlns:xlink="http://www.w3.org/1999/xlink" width="200" height="200"><defs><style type="text/css"></style></defs><path d="M735.9 128l0.1 0.1v767.8l-0.1 0.1H288.1l-0.1-0.1V128.1l0.1-0.1h447.8m0.1-64H288c-35.2 0-64 28.8-64 64v768c0 35.2 28.8 64 64 64h448c35.2 0 64-28.8 64-64V128c0-35.2-28.8-64-64-64z" p-id="2446"></path><path d="M800 704H224v64h576v-64zM576 800H448c-17.6 0-32 14.4-32 32s14.4 32 32 32h128c17.6 0 32-14.4 32-32s-14.4-32-32-32z" p-id="2447"></path></svg>