<?xml version="1.0" standalone="no"?><!DOCTYPE svg PUBLIC "-//W3C//DTD SVG 1.1//EN" "http://www.w3.org/Graphics/SVG/1.1/DTD/svg11.dtd"><svg t="1602684412813" class="icon" viewBox="0 0 1024 1024" version="1.1" xmlns="http://www.w3.org/2000/svg" p-id="2444" width="128" height="128" xmlns:xlink="http://www.w3.org/1999/xlink"><defs><style type="text/css"></style></defs><path d="M704.137 127.99V63.946H320.062v64.044H127.689l-0.83 832.355 321.228-0.787v-63.919h-256.05l-0.336-703.856h128.361l-0.097 64.169h384.172v-64.169l128.025 0.055v384.207h64.012v-448.22l-192.037 0.165z m-64.013 63.794h-256.05V127.99h256.05v63.794z" p-id="2445"></path><path d="M320.062 511.014l125.396 0.58v64.452H320.062zM320.062 383.79h256.05v64.419h-256.05z" p-id="2446"></path><path d="M898.115 825.027L795.39 722.301l45.914-45.914-43.131-43.131-3.231-3.231-90.395-90.395-44.82-44.82-89.858 89.858 44.821 44.82 45.956-45.956 90.395 90.394-45.957 45.957 45.575 45.574 0.787 0.788 57.058 57.058-45.933 45.933-58.519-59.222-0.349 0.348-45.226-45.225-46.234 46.234-89.747-89.746 42.508-42.508 44.353 44.354 49.639-49.639-44.362-44.363-49.637 49.637-44.811-44.812-86.301 86.301 44.82 44.82-0.334 0.335 89.746 89.746-0.167 0.168 45.574 45.574 45.611-45.611 103.84 104.54z" p-id="2447"></path></svg>